<svg xmlns="http://www.w3.org/2000/svg" version="1.1" xmlns:xlink="http://www.w3.org/1999/xlink" width="512" height="512" x="0" y="0" viewBox="0 0 96 96" style="enable-background:new 0 0 512 512" xml:space="preserve" class=""><g><path d="m68.124 67.213-16.598 2.974c.293-.675.483-1.405.483-2.194 0-1.694-.64-3.191-1.899-4.443-1.09-1.095-2.59-1.627-4.586-1.627H28.512a1.506 1.506 0 0 0-1.147-.545h-8.361c-.649 0-1.258.254-1.714.716a2.386 2.386 0 0 0-.696 1.718c.038 3.508.143 18.535.055 21.714a2.388 2.388 0 0 0 .682 1.745c.451.464 1.081.73 1.728.73h7.426a2.412 2.412 0 0 0 2.409-2.409v-2.954l12.144 2.539c.348.073 2.115-.03 2.203-.073l27.16-5.122a6.493 6.493 0 0 0 5.246-7.523c-.618-3.474-3.945-5.887-7.523-5.246zm-42.287 17.73H19.72c.064-4.121-.026-16.667-.062-20.507h6.178v20.507zm44.014-7.968L42.48 82.149c-.092.03-.611.077-.816.034l-12.769-2.67V64.981h16.63c1.157 0 1.926.231 2.424.732.685.682 1.003 1.406 1.003 2.281 0 1.174-1.05 2.408-2.095 3.031l-9.148.453a1.53 1.53 0 0 0 .077 3.057s7.957-.203 8.033-.217l22.846-4.093a3.427 3.427 0 0 1 3.975 2.772 3.438 3.438 0 0 1-2.789 3.978zM71.422 15.783h-8.879v-3.66A4.126 4.126 0 0 0 58.421 8H46.747a4.127 4.127 0 0 0-4.122 4.123v3.66h-8.88c-4.402 0-7.983 3.581-7.983 7.983v22.111c0 4.403 3.581 7.984 7.983 7.984h37.677c4.402 0 7.983-3.581 7.983-7.984V23.766c0-4.402-3.581-7.983-7.983-7.983zm-25.74-3.66c0-.588.478-1.066 1.065-1.066h11.674c.587 0 1.065.478 1.065 1.066v3.66H45.682zm30.666 33.754a4.93 4.93 0 0 1-4.925 4.926H33.745a4.93 4.93 0 0 1-4.925-4.926V23.766a4.93 4.93 0 0 1 4.925-4.925h37.677a4.93 4.93 0 0 1 4.925 4.925v22.111z" fill="#ffffff" opacity="1" data-original="#000000" class=""></path><path d="M58.923 29.704h-1.221v-1.221c0-2.822-2.296-5.117-5.118-5.117s-5.118 2.295-5.118 5.117v1.221h-1.221c-2.822 0-5.118 2.296-5.118 5.118s2.296 5.118 5.118 5.118h1.221v1.221c0 2.822 2.296 5.117 5.118 5.117s5.118-2.295 5.118-5.117V39.94h1.221a5.123 5.123 0 0 0 5.117-5.118 5.124 5.124 0 0 0-5.117-5.118zm0 7.178h-4.279v4.279a2.06 2.06 0 0 1-4.12 0v-4.279h-4.279a2.06 2.06 0 0 1 0-4.12h4.279v-4.279a2.06 2.06 0 0 1 4.12 0v4.279h4.279a2.06 2.06 0 0 1 0 4.12z" fill="#ffffff" opacity="1" data-original="#000000" class=""></path></g></svg>